HIERARCHY
ROOT hips
{
	OFFSET -0.003675 0.299928 -0.021708
	CHANNELS 6 Xposition Yposition Zposition Xrotation Yrotation Zrotation
	JOINT LowerBack
	{
		OFFSET 0.000919 0.177588 0.009275
		CHANNELS 3 Xrotation Yrotation Zrotation
		JOINT spine
		{
			OFFSET 0.000919 0.177588 0.009275
			CHANNELS 3 Xrotation Yrotation Zrotation
			JOINT chest
			{
				OFFSET 0.000456 0.100015 0.004638
				CHANNELS 3 Xrotation Yrotation Zrotation
				JOINT neck
				{
					OFFSET 0.000456 0.100015 0.004638
					CHANNELS 3 Xrotation Yrotation Zrotation
					JOINT head
					{
						OFFSET 0.000924 0.155147 0.009274
						CHANNELS 6 Xposition Yposition Zposition Xrotation Yrotation Zrotation
						End Site
						{
							OFFSET 0.000000 0.153400 0.000000
						}
					}
				}
				JOINT shoulder.L
				{
					OFFSET 0.019937 0.078966 0.057518
					CHANNELS 6 Xposition Yposition Zposition Yrotation Xrotation Zrotation
					JOINT upper_arm.L
					{
						OFFSET 0.177024 -0.020465 -0.095062
						CHANNELS 6 Xposition Yposition Zposition Xrotation Yrotation Zrotation
						JOINT forearm.L
						{
							OFFSET 0.247100 -0.135500 -0.061800
							CHANNELS 3 Xrotation Yrotation Zrotation
							JOINT hand.L
							{
								OFFSET 0.217000 -0.143000 0.039300
								CHANNELS 3 Xrotation Yrotation Zrotation
								JOINT palm.01.L
								{
									OFFSET 0.021770 -0.038291 0.012954
									CHANNELS 6 Xposition Yposition Zposition Yrotation Xrotation Zrotation
									JOINT f_index.01.L
									{
										OFFSET 0.053215 -0.044137 0.008236
										CHANNELS 3 Xrotation Yrotation Zrotation
										JOINT f_index.02.L
										{
											OFFSET 0.036108 -0.024723 -0.010656
											CHANNELS 3 Xrotation Yrotation Zrotation
											JOINT f_index.03.L
											{
												OFFSET 0.021342 -0.014948 -0.010846
												CHANNELS 3 Xrotation Yrotation Zrotation
												End Site
												{
													OFFSET 0.015600 -0.009860 -0.013421
												}
											}
										}
									}
									JOINT thumb.01.L
									{
										OFFSET -0.009090 -0.002348 -0.024223
										CHANNELS 6 Xposition Yposition Zposition Xrotation Yrotation Zrotation
										JOINT thumb.02.L
										{
											OFFSET 0.019713 -0.035076 -0.011120
											CHANNELS 3 Xrotation Yrotation Zrotation
											JOINT thumb.03.L
											{
												OFFSET 0.024877 -0.021748 -0.005176
												CHANNELS 3 Xrotation Yrotation Zrotation
												End Site
												{
													OFFSET 0.016125 -0.013029 -0.001569
												}
											}
										}
									}
								}
								JOINT palm.02.L
								{
									OFFSET 0.032823 -0.025104 0.012281
									CHANNELS 6 Xposition Yposition Zposition Yrotation Xrotation Zrotation
									JOINT f_middle.01.L
									{
										OFFSET 0.055723 -0.038469 0.008037
										CHANNELS 3 Xrotation Yrotation Zrotation
										JOINT f_middle.02.L
										{
											OFFSET 0.038167 -0.027473 -0.015582
											CHANNELS 3 Xrotation Yrotation Zrotation
											JOINT f_middle.03.L
											{
												OFFSET 0.021707 -0.016587 -0.017037
												CHANNELS 3 Xrotation Yrotation Zrotation
												End Site
												{
													OFFSET 0.014112 -0.010584 -0.014294
												}
											}
										}
									}
								}
								JOINT palm.03.L
								{
									OFFSET 0.039230 -0.011402 0.008390
									CHANNELS 6 Xposition Yposition Zposition Yrotation Xrotation Zrotation
									JOINT f_ring.01.L
									{
										OFFSET 0.061796 -0.031470 0.007910
										CHANNELS 3 Xrotation Yrotation Zrotation
										JOINT f_ring.02.L
										{
											OFFSET 0.033092 -0.023401 -0.019127
											CHANNELS 3 Xrotation Yrotation Zrotation
											JOINT f_ring.03.L
											{
												OFFSET 0.021392 -0.015362 -0.017824
												CHANNELS 3 Xrotation Yrotation Zrotation
												End Site
												{
													OFFSET 0.008670 -0.007297 -0.014686
												}
											}
										}
									}
								}
								JOINT palm.04.L
								{
									OFFSET 0.043417 0.002450 0.002889
									CHANNELS 6 Xposition Yposition Zposition Yrotation Xrotation Zrotation
									JOINT f_pinky.01.L
									{
										OFFSET 0.069986 -0.026156 0.003627
										CHANNELS 3 Xrotation Yrotation Zrotation
										JOINT f_pinky.02.L
										{
											OFFSET 0.018520 -0.012813 -0.016429
											CHANNELS 3 Xrotation Yrotation Zrotation
											JOINT f_pinky.03.L
											{
												OFFSET 0.013822 -0.009796 -0.014947
												CHANNELS 3 Xrotation Yrotation Zrotation
												End Site
												{
													OFFSET 0.007238 -0.006103 -0.011657
												}
											}
										}
									}
								}
							}
						}
					}
				}
				JOINT shoulder.R
				{
					OFFSET -0.016662 0.078957 0.057696
					CHANNELS 6 Xposition Yposition Zposition Yrotation Xrotation Zrotation
					JOINT upper_arm.R
					{
						OFFSET -0.176972 -0.020537 -0.095144
						CHANNELS 6 Xposition Yposition Zposition Xrotation Yrotation Zrotation
						JOINT forearm.R
						{
							OFFSET -0.247100 -0.135500 -0.061800
							CHANNELS 3 Xrotation Yrotation Zrotation
							JOINT hand.R
							{
								OFFSET -0.217000 -0.143000 0.039300
								CHANNELS 3 Xrotation Yrotation Zrotation
								JOINT palm.01.R
								{
									OFFSET -0.021773 -0.038278 0.012988
									CHANNELS 6 Xposition Yposition Zposition Yrotation Xrotation Zrotation
									JOINT f_index.01.R
									{
										OFFSET -0.053212 -0.044139 0.008249
										CHANNELS 3 Xrotation Yrotation Zrotation
										JOINT f_index.02.R
										{
											OFFSET -0.036049 -0.024835 -0.010634
											CHANNELS 3 Xrotation Yrotation Zrotation
											JOINT f_index.03.R
											{
												OFFSET -0.021371 -0.014881 -0.010866
												CHANNELS 3 Xrotation Yrotation Zrotation
												End Site
												{
													OFFSET -0.015584 -0.009883 -0.013422
												}
											}
										}
									}
									JOINT thumb.01.R
									{
										OFFSET 0.009113 -0.002381 -0.024211
										CHANNELS 6 Xposition Yposition Zposition Xrotation Yrotation Zrotation
										JOINT thumb.02.R
										{
											OFFSET -0.019694 -0.035097 -0.011088
											CHANNELS 3 Xrotation Yrotation Zrotation
											JOINT thumb.03.R
											{
												OFFSET -0.024867 -0.021762 -0.005168
												CHANNELS 3 Xrotation Yrotation Zrotation
												End Site
												{
													OFFSET -0.016120 -0.013036 -0.001565
												}
											}
										}
									}
								}
								JOINT palm.02.R
								{
									OFFSET -0.032828 -0.025095 0.012286
									CHANNELS 6 Xposition Yposition Zposition Yrotation Xrotation Zrotation
									JOINT f_middle.01.R
									{
										OFFSET -0.055721 -0.038472 0.008040
										CHANNELS 3 Xrotation Yrotation Zrotation
										JOINT f_middle.02.R
										{
											OFFSET -0.038101 -0.027593 -0.015557
											CHANNELS 3 Xrotation Yrotation Zrotation
											JOINT f_middle.03.R
											{
												OFFSET -0.021730 -0.016530 -0.017054
												CHANNELS 3 Xrotation Yrotation Zrotation
												End Site
												{
													OFFSET -0.014096 -0.010608 -0.014293
												}
											}
										}
									}
								}
								JOINT palm.03.R
								{
									OFFSET -0.039192 -0.011488 0.008390
									CHANNELS 6 Xposition Yposition Zposition Yrotation Xrotation Zrotation
									JOINT f_ring.01.R
									{
										OFFSET -0.061839 -0.031387 0.007876
										CHANNELS 3 Xrotation Yrotation Zrotation
										JOINT f_ring.02.R
										{
											OFFSET -0.033068 -0.023437 -0.019125
											CHANNELS 3 Xrotation Yrotation Zrotation
											JOINT f_ring.03.R
											{
												OFFSET -0.021371 -0.015393 -0.017822
												CHANNELS 3 Xrotation Yrotation Zrotation
												End Site
												{
													OFFSET -0.008654 -0.007321 -0.014684
												}
											}
										}
									}
								}
								JOINT palm.04.R
								{
									OFFSET -0.043421 0.002443 0.002845
									CHANNELS 6 Xposition Yposition Zposition Yrotation Xrotation Zrotation
									JOINT f_pinky.01.R
									{
										OFFSET -0.069983 -0.026169 0.003599
										CHANNELS 3 Xrotation Yrotation Zrotation
										JOINT f_pinky.02.R
										{
											OFFSET -0.018501 -0.012842 -0.016428
											CHANNELS 3 Xrotation Yrotation Zrotation
											JOINT f_pinky.03.R
											{
												OFFSET -0.013806 -0.009821 -0.014946
												CHANNELS 3 Xrotation Yrotation Zrotation
												End Site
												{
													OFFSET -0.007226 -0.006121 -0.011655
												}
											}
										}
									}
								}
							}
						}
					}
				}
			}
		}
	}
	JOINT pelvis.L
	{
		OFFSET 0.000000 0.000000 0.000000
		CHANNELS 6 Xposition Yposition Zposition Xrotation Yrotation Zrotation
		JOINT thigh.L
		{
			OFFSET 0.101675 0.001054 -0.000000
			CHANNELS 3 Xrotation Yrotation Zrotation
			JOINT shin.L
			{
				OFFSET 0.000000 -0.534800 0.041000
				CHANNELS 3 Xrotation Yrotation Zrotation
				JOINT foot.L
				{
					OFFSET 0.000000 -0.452000 -0.044800
					CHANNELS 3 Xrotation Yrotation Zrotation
					JOINT toe.L
					{
						OFFSET -0.000000 -0.068500 0.109600
						CHANNELS 3 Xrotation Yrotation Zrotation
						End Site
						{
							OFFSET -0.000000 0.000000 0.067200
						}
					}
				}
				JOINT heel.L
				{
					OFFSET 0.000000 -0.452000 -0.044800
					CHANNELS 3 Xrotation Yrotation Zrotation
					JOINT heel.02.L
					{
						OFFSET -0.038000 -0.085200 0.016200
						CHANNELS 6 Xposition Yposition Zposition Xrotation Yrotation Zrotation
						End Site
						{
							OFFSET 0.080000 -0.000000 0.000000
						}
					}
				}
			}
		}
	}
	JOINT pelvis.R
	{
		OFFSET 0.000000 0.000000 0.000000
		CHANNELS 6 Xposition Yposition Zposition Xrotation Yrotation Zrotation
		JOINT thigh.R
		{
			OFFSET -0.094325 0.001054 0.000000
			CHANNELS 3 Xrotation Yrotation Zrotation
			JOINT shin.R
			{
				OFFSET 0.000000 -0.534800 0.041000
				CHANNELS 3 Xrotation Yrotation Zrotation
				JOINT foot.R
				{
					OFFSET 0.000000 -0.452000 -0.044800
					CHANNELS 3 Xrotation Yrotation Zrotation
					JOINT toe.R
					{
						OFFSET -0.000000 -0.068500 0.109600
						CHANNELS 3 Xrotation Yrotation Zrotation
						End Site
						{
							OFFSET -0.000000 0.000000 0.067200
						}
					}
				}
				JOINT heel.R
				{
					OFFSET 0.000000 -0.452000 -0.044800
					CHANNELS 3 Xrotation Yrotation Zrotation
					JOINT heel.02.R
					{
						OFFSET 0.038000 -0.085200 0.016200
						CHANNELS 6 Xposition Yposition Zposition Xrotation Yrotation Zrotation
						End Site
						{
							OFFSET -0.080000 0.000000 -0.000000
						}
					}
				}
			}
		}
	}
}
MOTION
Frames: 4
Frame Time: 0.041667
-0.010052 0.212611 0.002745 34.428374 7.214372 87.962407 -0.000000 -0.000000 -0.000000 -0.000001 0.000003 -0.000001 -0.000001 -0.000004 0.000000 0.000000 -0.000005 0.000001 0.000924 0.155148 0.009274 -21.505918 0.082481 3.161738 0.019937 0.078966 0.057518 -1.486583 3.714954 38.425896 0.177025 -0.020466 -0.095062 -31.214910 19.804280 -73.964378 -59.064027 29.120064 -83.322106 -0.000004 -0.000002 0.000004 0.021770 -0.038291 0.012954 0.000002 -0.000001 -0.000002 0.000001 -0.000002 0.000003 0.000002 -0.000003 0.000005 0.000001 0.000003 -0.000002 -0.009090 -0.002348 -0.024224 0.000001 -0.000004 0.000004 0.000001 -0.000000 -0.000001 -0.000000 0.000001 0.000003 0.032823 -0.025104 0.012281 0.000004 0.000000 -0.000001 0.000003 0.000000 -0.000007 -0.000006 -0.000002 0.000003 0.000002 -0.000000 0.000000 0.039230 -0.011402 0.008390 0.000001 0.000000 0.000003 0.000002 0.000000 -0.000002 0.000001 0.000004 -0.000004 0.000003 -0.000004 0.000003 0.043417 0.002450 0.002889 0.000006 -0.000000 -0.000003 -0.000000 0.000002 -0.000001 0.000001 -0.000001 0.000002 -0.000001 -0.000002 -0.000001 -0.016662 0.078957 0.057696 4.916946 1.597882 -31.561502 -0.176972 -0.020537 -0.095144 -15.315716 -13.118969 52.327148 -69.861429 -6.098410 61.013048 0.000002 0.000002 -0.000002 -0.021773 -0.038278 0.012988 -0.000001 -0.000003 -0.000003 -0.000001 0.000002 -0.000003 -0.000003 -0.000004 -0.000003 -0.000004 0.000003 0.000002 0.009114 -0.002381 -0.024211 -0.000001 -0.000001 -0.000001 -0.000001 -0.000001 0.000002 0.000003 0.000001 0.000001 -0.032828 -0.025095 0.012286 0.000000 -0.000003 -0.000003 -0.000003 0.000000 -0.000001 0.000000 -0.000004 -0.000001 -0.000003 -0.000001 -0.000004 -0.039192 -0.011488 0.008390 0.000001 -0.000002 0.000001 0.000002 0.000008 -0.000003 0.000005 -0.000003 -0.000000 -0.000006 0.000003 -0.000000 -0.043421 0.002443 0.002845 -0.000001 -0.000003 -0.000002 -0.000003 0.000005 -0.000001 -0.000001 -0.000006 -0.000001 -0.000001 0.000003 -0.000003 0.000000 0.000000 -0.000000 -1.962090 1.778774 -20.647436 19.704331 -0.784279 -11.189015 22.212812 0.134716 -1.357368 0.000002 0.000004 0.000002 -0.000003 -0.000001 0.000001 -0.000002 0.000001 0.000003 -0.038000 -0.085200 0.016200 0.000000 -0.000002 0.000005 0.000000 0.000000 -0.000000 -1.855910 1.740021 -19.416520 1.103405 -0.821462 -11.058587 22.516436 1.159530 -11.782822 -0.000005 0.000001 -0.000000 0.000003 0.000001 -0.000001 0.000002 0.000004 0.000002 0.038000 -0.085200 0.016200 -0.000001 0.000001 0.000001 
-0.010106 0.212334 0.003463 33.413436 7.432355 88.075645 -0.000001 -0.000003 0.000000 0.000000 -0.000002 -0.000000 -0.000001 0.000002 -0.000000 -0.000001 0.000001 -0.000000 0.000924 0.155148 0.009274 -21.490359 0.083271 1.964374 0.019937 0.078966 0.057518 -5.420685 3.645913 40.155502 0.177024 -0.020465 -0.095062 -36.731702 21.877799 -73.114771 -54.376789 29.370175 -88.063459 -0.000000 -0.000002 0.000002 0.021770 -0.038291 0.012954 0.000006 -0.000002 -0.000000 -0.000000 -0.000001 -0.000000 -0.000003 0.000003 0.000009 -0.000001 0.000003 -0.000002 -0.009090 -0.002348 -0.024223 0.000003 -0.000002 -0.000004 -0.000003 -0.000000 0.000005 0.000001 -0.000001 -0.000002 0.032823 -0.025104 0.012281 0.000004 0.000001 -0.000001 -0.000001 0.000003 -0.000003 -0.000003 0.000003 0.000001 -0.000000 0.000001 0.000003 0.039230 -0.011402 0.008390 0.000003 -0.000000 0.000004 0.000002 0.000002 -0.000004 -0.000000 0.000007 0.000003 -0.000000 -0.000010 0.000006 0.043417 0.002450 0.002889 0.000003 0.000001 -0.000002 -0.000002 -0.000006 0.000001 -0.000002 -0.000002 0.000000 -0.000001 -0.000003 -0.000001 -0.016662 0.078957 0.057696 1.294127 1.504358 -30.576803 -0.176972 -0.020537 -0.095144 -18.192658 -11.936579 49.120419 -71.539142 -14.309210 65.000595 0.000003 -0.000003 0.000003 -0.021773 -0.038278 0.012988 -0.000002 0.000003 -0.000002 -0.000001 0.000005 0.000001 -0.000004 -0.000004 -0.000005 -0.000001 0.000003 -0.000002 0.009113 -0.002381 -0.024212 0.000001 -0.000002 0.000000 0.000001 0.000007 -0.000001 -0.000000 -0.000000 -0.000003 -0.032828 -0.025095 0.012286 -0.000001 0.000001 -0.000006 -0.000003 0.000000 0.000001 -0.000004 -0.000001 -0.000002 -0.000006 0.000006 -0.000005 -0.039192 -0.011488 0.008390 -0.000002 0.000003 0.000001 0.000001 0.000002 -0.000005 0.000002 -0.000003 0.000003 -0.000005 0.000003 -0.000006 -0.043421 0.002442 0.002845 0.000000 0.000004 -0.000001 -0.000003 0.000005 -0.000001 0.000000 -0.000004 -0.000003 0.000002 0.000002 -0.000003 0.000000 0.000000 -0.000000 -1.997613 1.817332 -20.904632 19.587791 -0.705192 -10.130420 23.205306 0.101062 -1.017672 -0.000003 -0.000001 0.000002 -0.000004 -0.000007 -0.000001 -0.000003 -0.000003 0.000004 -0.038000 -0.085200 0.016200 0.000000 -0.000005 0.000001 0.000000 0.000000 -0.000000 -1.888711 1.777038 -19.673870 5.065510 -0.909942 -11.936859 17.556206 1.127608 -11.453916 -0.000002 0.000001 -0.000003 -0.000002 -0.000002 -0.000002 0.000003 0.000001 -0.000001 0.038000 -0.085200 0.016200 -0.000001 0.000001 0.000001 
-0.008912 0.208785 0.002604 38.130597 5.337769 91.607679 -0.000001 0.000002 -0.000001 0.000000 -0.000001 0.000000 0.000000 -0.000003 0.000001 -0.000000 -0.000000 0.000000 0.000924 0.155148 0.009274 -23.379521 0.091656 -1.724660 0.019937 0.078966 0.057518 -11.501256 5.318096 48.072500 0.177024 -0.020465 -0.095062 -66.704427 26.282708 -59.189340 -63.766516 1.221411 -59.062688 -0.000000 -0.000003 0.000000 0.021770 -0.038291 0.012954 -0.000002 0.000003 0.000001 -0.000001 -0.000000 0.000001 0.000000 0.000001 0.000003 -0.000000 0.000002 0.000002 -0.009090 -0.002348 -0.024224 0.000001 -0.000002 0.000006 0.000001 -0.000003 0.000001 0.000000 0.000000 0.000003 0.032823 -0.025104 0.012281 -0.000005 0.000002 0.000004 -0.000000 0.000001 -0.000005 -0.000004 -0.000003 0.000007 0.000001 0.000001 0.000003 0.039230 -0.011402 0.008390 0.000001 0.000002 0.000008 0.000002 0.000000 -0.000002 0.000001 0.000003 0.000001 0.000000 -0.000003 0.000001 0.043417 0.002450 0.002889 -0.000002 0.000002 -0.000002 0.000002 -0.000004 0.000001 0.000000 -0.000003 0.000001 0.000001 -0.000001 -0.000001 -0.016662 0.078957 0.057696 -0.614926 2.810480 -34.041127 -0.176972 -0.020537 -0.095144 -40.576914 -4.572629 41.983626 12.666360 60.341142 -55.591231 -0.000001 0.000004 -0.000002 -0.021773 -0.038278 0.012988 -0.000000 0.000000 -0.000003 0.000003 -0.000002 -0.000003 -0.000002 -0.000001 -0.000006 0.000001 0.000000 -0.000001 0.009113 -0.002381 -0.024211 0.000006 -0.000006 -0.000000 0.000003 -0.000003 -0.000002 -0.000001 0.000001 -0.000008 -0.032828 -0.025095 0.012286 0.000002 -0.000003 -0.000003 0.000001 0.000004 -0.000001 0.000002 -0.000001 0.000006 -0.000001 0.000008 -0.000007 -0.039192 -0.011488 0.008390 -0.000000 -0.000000 0.000007 -0.000001 0.000005 0.000002 0.000002 -0.000002 0.000005 -0.000004 -0.000000 0.000002 -0.043421 0.002443 0.002845 0.000003 0.000001 0.000002 -0.000003 0.000002 -0.000002 0.000000 -0.000005 0.000002 -0.000001 0.000003 0.000003 -0.000000 0.000000 0.000000 -1.984935 1.868396 -21.466006 25.191877 -0.785524 -11.530349 19.788434 -0.266769 2.694504 0.000000 0.000003 -0.000001 -0.000000 0.000001 0.000003 0.000002 0.000001 -0.000002 -0.038000 -0.085200 0.016200 0.000000 0.000000 0.000001 -0.000000 0.000000 0.000000 -1.874504 1.826305 -20.235387 5.140455 -0.411260 -5.352606 14.810702 1.509961 -15.423202 0.000000 0.000000 -0.000001 0.000003 0.000000 0.000001 -0.000003 -0.000004 -0.000002 0.038000 -0.085200 0.016200 -0.000003 -0.000005 -0.000002 
-0.011002 0.208860 0.001939 53.959061 9.214462 82.142225 0.000000 -0.000002 0.000001 0.000000 -0.000003 0.000000 0.000000 0.000002 -0.000001 0.000000 -0.000001 -0.000001 0.000924 0.155147 0.009274 -21.712480 0.082928 6.005565 0.019937 0.078966 0.057518 2.997982 3.422379 36.384462 0.177025 -0.020465 -0.095062 -34.143781 17.606959 -67.297027 -13.929374 -13.013063 -16.832719 -0.000003 -0.000001 -0.000002 0.021770 -0.038291 0.012954 0.000003 -0.000003 0.000001 0.000003 -0.000002 0.000001 -0.000000 -0.000004 0.000008 0.000001 0.000003 0.000002 -0.009090 -0.002348 -0.024224 0.000000 -0.000002 0.000001 0.000004 0.000002 0.000001 -0.000002 0.000000 -0.000004 0.032823 -0.025104 0.012281 -0.000002 -0.000005 0.000004 0.000002 0.000000 -0.000007 0.000003 0.000003 0.000005 -0.000003 0.000003 0.000003 0.039230 -0.011402 0.008390 -0.000003 -0.000002 0.000008 -0.000002 0.000001 -0.000004 0.000003 0.000005 0.000001 -0.000001 0.000002 0.000001 0.043417 0.002450 0.002889 -0.000000 -0.000002 -0.000002 -0.000000 -0.000004 0.000001 -0.000002 0.000004 -0.000001 0.000001 -0.000002 0.000003 -0.016662 0.078957 0.057696 16.650459 0.949776 -32.531006 -0.176972 -0.020537 -0.095144 -22.814177 -17.237176 66.927016 -6.313700 6.740408 18.640983 -0.000002 0.000004 -0.000002 -0.021773 -0.038278 0.012988 0.000002 -0.000002 0.000000 -0.000001 0.000004 0.000001 -0.000000 0.000001 -0.000004 -0.000000 0.000004 0.000003 0.009114 -0.002381 -0.024211 -0.000001 0.000001 -0.000001 0.000002 -0.000005 -0.000003 -0.000001 0.000001 -0.000003 -0.032828 -0.025095 0.012286 0.000002 -0.000001 0.000001 0.000003 0.000006 -0.000001 -0.000002 -0.000002 -0.000006 -0.000002 0.000006 -0.000005 -0.039192 -0.011488 0.008390 0.000003 0.000002 0.000001 -0.000001 -0.000003 0.000000 0.000003 -0.000000 -0.000000 -0.000004 0.000002 -0.000003 -0.043421 0.002443 0.002844 0.000006 -0.000002 -0.000002 -0.000002 0.000003 -0.000001 -0.000002 -0.000004 -0.000000 0.000001 -0.000000 0.000003 0.000000 0.000000 -0.000000 -2.019408 1.694303 -19.578053 9.418224 -0.859918 -11.579066 34.541749 0.411713 -4.155554 -0.000002 -0.000001 -0.000001 -0.000003 -0.000001 0.000001 0.000000 -0.000000 -0.000001 -0.038000 -0.085200 0.016200 -0.000002 -0.000003 -0.000002 0.000000 0.000000 -0.000000 -1.914497 1.658224 -18.346940 1.935446 -0.546165 -7.365194 11.919811 1.371922 -13.982355 0.000000 -0.000002 -0.000004 0.000001 -0.000001 -0.000002 0.000002 -0.000000 -0.000003 0.038000 -0.085200 0.016200 0.000000 -0.000002 0.000004 
